<?xml version="1.0" encoding="UTF-8"?>
<svg width="825.2" height="591.42" data-name="Layer 1" version="1.1" viewBox="0 0 825.2 591.42" xml:space="preserve" xmlns="http://www.w3.org/2000/svg"><path transform="translate(-187.4 -154.29)" d="m855.22 530.61a3.6132 3.6132 0 0 0 2.9071-6.1341c-0.07417-0.366-0.12737-0.62878-0.20154-0.99475q0.05434-0.11581 0.10925-0.23144a9.7031 9.7031 0 0 1 17.876 0.89878c2.5964 7.179 5.991 14.407 6.561 21.897a28.705 28.705 0 0 1-0.96247 9.8382 115.09 115.09 0 0 0 12.68-47.26 111.08 111.08 0 0 0-0.112-12.411q-0.33489-5.0808-1.1148-10.11a116.42 116.42 0 0 0-20.768-50.362 30.983 30.983 0 0 1-12.25-13.954 23.634 23.634 0 0 1-1.8467-6.5512c0.62279 0.11137 1.2573 0.19237 1.882 0.2626 0.19474 0.01931 0.39969 0.03918 0.59443 0.05857l0.07346 0.00673a3.5799 3.5799 0 0 0 3.2081-5.6892q-0.38259-0.51834-0.7657-1.0362c-0.387-0.5328-0.78478-1.0558-1.1717-1.5885a1.7838 1.7838 0 0 1-0.12638-0.16038c-0.44535-0.60755-0.891-1.2048-1.3364-1.8124a10.352 10.352 0 0 1 3.5425-3.1191c4.8648-2.5531 11.309-0.328 14.53 4.1149 3.2316 4.4433 3.599 10.483 2.1583 15.78a41.485 41.485 0 0 1-6.3271 12.512c0.24157 0.34072 0.49384 0.67161 0.73533 1.0123a117.17 117.17 0 0 1 11.316 19.923 48.709 48.709 0 0 1 3.957-22.465c3.0927-6.5781 8.5672-11.985 13.427-17.57 5.8368-6.7084 16.999-3.1425 17.56 5.732q0.00813 0.12888 0.0156 0.25766-1.0494 0.52926-2.0588 1.1313a4.9011 4.9011 0 0 0 1.5591 9.0013l0.09912 0.02006a48.767 48.767 0 0 1-1.6231 7.2236 50.21 50.21 0 0 1-26.436 30.272c-0.41021 0.18678-0.8102 0.374-1.2199 0.5506a119.6 119.6 0 0 1 5.0218 30.563 113.43 113.43 0 0 1-0.93392 18.292l0.04087-0.2143a29.974 29.974 0 0 1 11.026-16.813c8.1667-6.0954 19.39-7.9574 28.118-12.756a5.6253 5.6253 0 0 1 8.3519 5.8673q-0.02235 0.11259-0.04527 0.22517a32.924 32.924 0 0 0-3.7706 1.6054q-1.0494 0.52938-2.0588 1.1313a4.9012 4.9012 0 0 0 1.5591 9.0014l0.0992 0.02c0.0714 0.01365 0.13259 0.02683 0.20391 0.04048a48.808 48.808 0 0 1-9.6217 13.625 50.254 50.254 0 0 1-37.15 14.279l-0.01031-4.8e-4a119.56 119.56 0 0 1-9.1134 23.048l-28.661-1.3343c-0.088-0.32324-0.16508-0.65631-0.24275-0.97907a32.599 32.599 0 0 0 7.9526-0.10325c-2.005-2.7083-4.009-5.4371-6.014-8.1454a1.7811 1.7811 0 0 1-0.12638-0.16029c-1.0164-1.3856-2.0437-2.7615-3.0601-4.1471l-5e-4 -0.00167a47.75 47.75 0 0 1 1.9633-12.086z" fill="#f2f2f2"/><path transform="translate(-187.4 -154.29)" d="m277.74 282.77a3.6132 3.6132 0 0 1-3.2805-5.9428c0.05141-0.36985 0.08827-0.63544 0.13969-1.0053q-0.0614-0.11225-0.12334-0.22425a9.7031 9.7031 0 0 0-17.786 2.0015c-2.1478 7.3257-5.0894 14.75-5.1956 22.26a28.705 28.705 0 0 0 1.5685 9.76 115.09 115.09 0 0 1-15.576-46.387 111.08 111.08 0 0 1-0.655-12.394q0.02032-5.0917 0.488-10.16a116.42 116.42 0 0 1 17.616-51.549 30.983 30.983 0 0 0 11.364-14.684 23.634 23.634 0 0 0 1.4384-6.6528c-0.61471 0.14962-1.243 0.26968-1.8622 0.37837-0.19317 0.0313-0.3965 0.0638-0.58967 0.09518l-0.0729 0.01126a3.5799 3.5799 0 0 1-3.5535-5.4801q0.34985-0.541 0.70021-1.0815c0.35338-0.55569 0.71805-1.1022 1.0714-1.6578a1.783 1.783 0 0 0 0.11622-0.16788c0.407-0.63391 0.81488-1.2575 1.2218-1.8914a10.352 10.352 0 0 0-3.7285-2.8942c-5.0133-2.2477-11.307 0.37131-14.248 5.0048-2.9509 4.6345-2.9444 10.685-1.1792 15.883a41.485 41.485 0 0 0 7.0881 12.097c-0.22006 0.355-0.4514 0.70083-0.67138 1.0558a117.17 117.17 0 0 0-10.063 20.584 48.709 48.709 0 0 0-5.3374-22.177c-3.4932-6.3744-9.2913-11.432-14.486-16.706-6.2402-6.335-17.161-2.0862-17.172 6.806q-1.5e-4 0.12915 3.5e-4 0.25814 1.0801 0.46341 2.1248 1.002a4.9011 4.9011 0 0 1-1 9.0805l-0.09769 0.02615a48.767 48.767 0 0 0 2.0663 7.1095 50.21 50.21 0 0 0 28.256 28.581c0.421 0.16108 0.83176 0.32327 1.2516 0.47418a119.6 119.6 0 0 0-3.124 30.814 113.43 113.43 0 0 0 2.0623 18.199l-0.054-0.21137a29.974 29.974 0 0 0-12.044-16.1c-8.5277-5.5791-19.845-6.7442-28.852-10.995a5.6253 5.6253 0 0 0-7.9734 6.3721q0.02925 0.111 0.05909 0.22194a32.924 32.924 0 0 1 3.8626 1.3694q1.0801 0.46353 2.1248 1.002a4.9012 4.9012 0 0 1-1 9.0805l-0.09777 0.02608c-0.07043 0.018-0.13068 0.035-0.201 0.053a48.808 48.808 0 0 0 10.445 13.005 50.254 50.254 0 0 0 37.961 11.957l0.01025-0.00112a119.56 119.56 0 0 0 10.52 22.441l28.523-3.1025c0.06784-0.32806 0.12422-0.66525 0.1818-0.99219a32.6 32.6 0 0 1-7.9438 0.38829c1.8338-2.827 3.6654-5.6744 5.4992-8.5014a1.7786 1.7786 0 0 0 0.11623-0.1678c0.9289-1.4458 1.8692-2.8825 2.798-4.3282l4e-4 -0.00171a47.75 47.75 0 0 0-2.7063-11.941z" fill="#f2f2f2"/><path transform="translate(-187.4 -154.29)" d="m671.82 272.2a10.016 10.016 0 0 1 6.3834 13.969l15.306 17.017-8.0728 11.824-21.278-24.335a10.07 10.07 0 0 1 7.661-18.475z" fill="#a0616a"/><path transform="translate(-187.4 -154.29)" d="m815.11 313.99a20.026 20.026 0 0 0-27.608-6.5422l-50.339 31.177-54.301-46.158-13.51 12.579 59.987 77.83 77.965-40.644c-1.8195 0.94854 10.004-24.663 7.8057-28.241z" fill="#ccc"/><path transform="translate(-187.4 -154.29)" d="m715.39 417.65a189.27 189.27 0 0 1-189.31 189.31c-104.55 0-189.31-84.757-189.31-189.31a189.24 189.24 0 0 1 9.6548-59.842 189.51 189.51 0 0 1 179.65-129.47 189.24 189.24 0 0 1 166.94 99.986 186.77 186.77 0 0 1 10.464 23.106c0.41 1.1042 0.80984 2.2084 1.1988 3.3233v0.01053q2.6032 7.3513 4.5856 14.976a189.32 189.32 0 0 1 6.1209 47.905z" fill="#3f3d56"/><g fill="#fff"><path transform="translate(-187.4 -154.29)" d="m505.37 289.93a63.517 63.517 0 0 0-55.762-2.2814c-7.7965 3.393-16.006 9.4797-18.607 20.471 10.519-6.208 24.136 3.6006 26.842 19.336l-0.63186 0.17419c-1.4296 10.899 1.7619 22.764 7.9407 29.522 0.81123-7.0196 5.4268-11.797 9.9666-14.781 4.5398-2.9843 9.562-5.1522 13.027-10.282 4.1079-6.0813 5.151-14.969 6.7829-23.077 1.6319-8.1079 4.728-16.822 10.44-19.082z"/><path transform="translate(-187.4 -154.29)" d="m446.49 382.68c-2.9133 4.375-6.8045 7.1201-10.296 10.538-3.4811 3.4286-6.7941 8.056-7.4882 13.998-0.44177 3.8072 0.24187 7.6774 0.14712 11.527-0.09449 3.8492-1.3777 8.1822-3.9964 9.1393-4.1333 1.4934-7.2884-6.1841-11.537-6.7204-3.3761-0.42071-6.4154 4.8905-5.4374 9.497 0.97814 4.6065 5.5741 6.6468 8.2139 3.6389 2.3874 4.007 0.70457 11.274-2.8817 12.505-0.37873 2.5241-0.7572 5.0377-1.1254 7.5617-9.0657-6.3418-18.226-12.789-25.935-22.075a67.007 67.007 0 0 1-15.271-36.095c-0.99907-10.675 0.48375-22.885-4.4171-31.099-3.923-6.5732-10.654-8.0247-16.712-7.6144-1.1042 0.07356-2.219 0.19976-3.3233 0.33649a187.24 187.24 0 0 1 13.556-31.025 13.282 13.282 0 0 0 3.397-2.114c5.6373-4.7852 8.1404-14.472 12.715-21.171q0.44177-0.64686 0.915-1.262c4.6802-6.1105 10.948-9.2551 17.006-12.179 13.409-6.51 27.208-13.104 41.364-12.2l-4.028 0.38913q-7.0517 19.751-14.114 39.502-1.0728 3.0288-2.1665 6.0684c-2.6714 7.488-5.4269 15.46-5.0167 23.842 0.24187 4.964 1.9666 10.265 5.248 11.968 3.0604 1.5776 6.4049-0.35755 9.3601-2.2717 1.2516-0.79932 2.4927-1.5986 3.7442-2.4085 4.4908-2.8922 9.4654-5.858 14.209-3.9229 4.3436 1.7669 7.5512 7.667 8.1613 14.03a28.049 28.049 0 0 1-4.2911 17.616z"/><path transform="translate(-187.4 -154.29)" d="m473.2 472.57q-19.674-12.113-39.348-24.227l0.22263-0.57342c-8.1548 3.106-11.54 17.602-10.193 29.456 1.3476 11.854 5.9174 22.451 8.226 34.002a90.252 90.252 0 0 1-3.4027 47.358 387.84 387.84 0 0 0 45.56-62.781 33.588 33.588 0 0 0 4.1212-9.1381c0.83321-3.4418 0.70508-7.5796-0.96357-10.34a11.511 11.511 0 0 0-4.2234-3.7573z"/><path transform="translate(-187.4 -154.29)" d="m421.43 325.65c-1.3927 3.1314-1.9285 7.3068-0.66468 10.547 1.2908 3.309 4.0194 4.8044 6.5317 6.0495l7.2471 3.5922c2.411 1.1951 5.0097 2.4021 7.4675 1.4188 2.9644-1.1859 5.0198-5.8334 4.4881-10.148-0.56592-4.5912-3.4599-7.7493-6.1364-10.439q-5.6184-5.6453-11.237-11.291l-2.1109 2.5854a28.192 28.192 0 0 0-5.5858 7.6842z"/><path transform="translate(-187.4 -154.29)" d="m676.54 374.73q4.8906 1.1516 9.781 2.3032c-0.568 11.012-6.0263 21.203-13.346 24.894-3.05 1.5356-6.447 2.1034-8.9711 4.9747-2.2821 2.6082-3.4391 6.6677-4.5014 10.549q-2.7923 10.16-5.5846 20.319c-1.9982 7.2989-4.5643 15.408-9.7598 18.037-4.4592 2.2611-9.56-0.50493-12.989-5.143-3.4286-4.638-5.5215-10.875-7.5514-16.953 0.1262 6.6257-2.9552 13.125-7.3199 15.429-4.3752 2.3032-9.6969 0.22082-12.621-4.9219-2.1034-3.6915-2.9763-8.5611-5.0377-12.305-2.0613-3.744-6.3838-5.8896-8.6345-2.3769-1.483 2.3349-1.2937 5.9106-2.0299 8.8765-1.1463 4.6064-4.6169 7.4986-8.056 7.7511-3.4286 0.25241-6.7731-1.7248-9.6442-4.4067-5.9211-5.5531-10.286-14.366-11.979-24.158-0.74667-4.3646-0.957-9.1183 0.33662-13.21 1.2936-4.091 4.4171-7.2462 7.5196-6.4679 2.0404-4.3121-1.9876-10.033-5.6161-9.5286-3.639 0.5048-6.4891 4.4066-9.4759 7.4041-2.9763 2.9974-7.141 5.1743-10.139 2.198 0.02105 2.766-2.2296 4.596-4.1753 4.3646-1.9352-0.22082-3.6599-1.7773-5.4373-2.8817-6.8677-4.2805-15.586-1.4408-20.466 6.6573 3.05-12.978 7.5198-27.87 16.89-30.92 3.8284-1.2515 8.0036-0.22082 11.621-2.3874 6.405-3.8386 7.6986-18.342 2.1666-24.326 0.70457 5.6581 0.568 12.263-2.419 16.133-2.9868 3.8704-9.2551 1.3461-8.8764-4.3752-0.86248 3.9439-5.1534 4.5435-7.1306 1.5144-1.9878-3.0288-1.8194-7.9823-0.41019-11.6s3.8072-6.2156 6.1314-8.7082c4.9956-5.3532 10.065-10.77 15.849-14.135 5.7949-3.3654 12.484-4.5012 18.289-1.1567 3.0606 1.7668 5.753 4.7116 8.8765 6.2682 3.1237 1.567 7.0885 1.3673 9.1605-2.2928 2.3242-4.0806 1.2304-10.139 2.0929-15.239 1.546-9.0131 10.559-13.23 15.555-7.2779-3.7335-0.957-7.5933 3.4602-8.0562 8.8135-0.47322 5.3532 2.2298 10.759 5.8476 12.379 6.0789 2.6923 12.032-4.0808 16.628-10.349q7.1936-9.844 14.408-19.677a23.782 23.782 0 0 1 2.5766-3.1341 8.291 8.291 0 0 1 11.327-0.23135c4.8589 3.9648 7.1412 12.095 11.127 17.69 5.7844 8.1297 14.44 10.107 22.496 11.684q9.0078 1.7511 18.026 3.5232a186.77 186.77 0 0 1 10.464 23.106c-10.181 4.3225-19.573 12.41-26.945 23.295z"/><path transform="translate(-187.4 -154.29)" d="m695.96 501.28a188.55 188.55 0 0 1-15.671 26.219c-3.7861-1.6197-7.8562 1.2725-11.401 3.986-3.702 2.8396-8.1508 5.6056-11.947 3.0184-3.8808-2.6503-5.1324-10.065-3.9018-15.944 1.2304-5.8685 4.3013-10.538 7.2778-14.976 3.1551-4.7116 6.5311-9.6021 10.917-11.432 4.3962-1.83 10.044 0.7572 11.327 7.0044l3.113-0.10527c-1.7459-2.3978-0.83077-7.362 1.5145-8.2348 2.7028-1.0201 5.0483 2.6923 6.6468 5.9738 0.71517 1.4829 1.4408 2.9764 2.1244 4.4909z"/><path transform="translate(-187.4 -154.29)" d="m576.73 456.85c-6.6913 0.4208-11.992-7.8166-15.514-15.92-3.5221-8.1038-6.7357-17.371-12.773-21.496-3.4498-2.357-7.3829-2.6803-11.125-3.8224-3.742-1.142-7.6587-3.5052-9.4474-8.3179l-4.2446-1.7147c-5.6057 3.152-11.285 6.3616-16.116 11.491a36.018 36.018 0 0 0-9.6027 20.993c-0.81084 8.4961 2.1833 17.97 7.7779 21.161 4.4206 2.5219 9.5674 0.93232 14.045 3.241 5.5945 2.8844 8.916 11.264 10.173 19.537s0.93866 16.871 1.8382 25.238 3.3787 17.073 8.5093 21.361c6.4204 5.3657 15.841 0.907 18.722-8.8604 1.413-4.7911 1.3643-10.197 2.4211-15.171 1.861-8.7584 6.8829-15.256 10.866-22.441 3.9832-7.1844 7.1185-16.942 4.4694-25.28z"/><path transform="translate(-187.4 -154.29)" d="m510.61 370.79a17.86 17.86 0 0 1 1.7425 1.8498 6.0774 6.0774 0 0 1-0.107 6.2758 5.8386 5.8386 0 0 0 4.1813-2.1251 26.879 26.879 0 0 0 3.2058-4.5159c0.68252-1.1128 1.4084-2.6175 0.94522-3.9393-0.3161-0.90214-1.0636-1.287-1.5877-1.9654-0.83059-1.0753-1.0365-2.7834-1.4664-4.2593-0.92846-3.1878-3.1526-5.5319-5.5671-5.8671l0.33533 0.06416c-1.0086 0.34549-1.7128 1.9471-1.4899 3.3882 0.20313 1.3124 1.0465 2.402 0.96255 3.7405-0.12061 1.9247-2.0442 2.828-2.163 4.753a3.6744 3.6744 0 0 0 1.0083 2.6005z"/></g><path transform="translate(-187.4 -154.29)" d="M499.14247,338.08151c.00994-.00271.01994-.00326.02988-.0058a5.35694,5.35694,0,0,0,.57089-.60813Z" fill="#e6e6e6"/><path transform="translate(-187.4 -154.29)" d="m501.15 347.12c1.4795-0.95135 2.3057-3.5824 1.8165-5.7846-0.48608-2.1886-2.2065-3.66-3.7934-3.2558a3.8665 3.8665 0 0 1-3.595 1.0584c-0.98109-0.25259-2.0582-0.90305-2.9091-0.16386a4.4041 4.4041 0 0 0-0.9909 1.9348q-0.47242 1.4503-0.9449 2.9003a1.83 1.83 0 0 0-0.11163 1.0991 0.93106 0.93106 0 0 0 0.714 0.56762q2.8345 0.83566 5.669 1.6712c1.377 0.40594 2.8639 0.7971 4.1453-0.0271z" fill="#fff"/><path transform="translate(-187.4 -154.29)" d="m643.81 471.85q-1.3103-2.1451-2.6205-4.2904a14.334 14.334 0 0 0-3.4532-4.3358 3.0598 3.0598 0 0 0-4.356 0.43639l0.1064 0.81686c1.991 2.498 4.0976 5.2729 4.6026 8.9802 0.19918 1.4615 0.12986 2.9741 0.3045 4.442s0.671 2.9901 1.6184 3.623c1.3754 0.91891 2.9905-0.43593 3.9694-2.0891a7.1932 7.1932 0 0 0 1.1145-4.5788 8.0297 8.0297 0 0 0-1.286-3.0044z" fill="#fff"/><path transform="translate(-187.4 -154.29)" d="m682.68 417.23q0.37892-2.4849 0.758-4.9699a14.334 14.334 0 0 0 0.15018-5.5409 3.0598 3.0598 0 0 0-3.6136-2.4712l-0.44463 0.69346c-0.0854 3.1932-0.26073 6.6727-2.2618 9.8343-0.78878 1.2464-1.8159 2.359-2.6275 3.5944s-1.4122 2.7197-1.0949 3.814c0.46053 1.5887 2.5686 1.5923 4.3822 0.95787a7.1931 7.1931 0 0 0 3.8013-2.7854 8.0296 8.0296 0 0 0 0.95084-3.1267z" fill="#e6e6e6"/><path transform="translate(-187.4 -154.29)" d="m657.51 473.71c0.42709-1.2275-0.18949-2.6357-0.31972-3.9928a8.7649 8.7649 0 0 1 1.3338-4.9691 16.154 16.154 0 0 0 2.0783-4.5564 3.8115 3.8115 0 0 0-0.09971-2.2313c-0.28914-0.64955-0.9895-0.94582-1.3912-0.43149l0.85964 0.55366a7.8287 7.8287 0 0 0-3.4887 0.16894 4.3178 4.3178 0 0 0-2.6441 2.9806 18.441 18.441 0 0 1-0.69335 3.0924c-0.51278 1.054-1.5054 1.4046-2.1292 2.3298a5.5702 5.5702 0 0 0 0.08774 5.2918 6.1768 6.1768 0 0 0 3.4939 2.7476c1.0498 0.37666 2.4322 0.39651 2.9124-0.98362z" fill="#fff"/><path transform="translate(-187.4 -154.29)" d="m681.91 481.07a12.005 12.005 0 0 0 1.512 2.7751c1.1682 1.1768 2.756 0.4536 4.1732 0.16757a7.2155 7.2155 0 0 1 6.8641 2.7532 17.471 17.471 0 0 0-10.048-12.536c-3.341-1.362-6.8597-1.4936-10.334-1.616l-0.60013 0.1538c1.5292 4.4516 6.3314 4.352 8.4334 8.3027z" fill="#fff"/><path transform="translate(-187.4 -154.29)" d="M578.55783,490.17659l.00879.01939q.08736-.168.17459-.33624Z" fill="#e6e6e6"/><path transform="translate(-187.4 -154.29)" d="m574.86 497.34a32.889 32.889 0 0 0-2.0769 4.5623 39.711 39.711 0 0 0-1.5052 7.8063c-0.188 1.5045-0.246 3.4259 0.69654 4.159a1.337 1.337 0 0 0 1.7491-0.23754 6.9183 6.9183 0 0 0 1.2679-1.8847 43.417 43.417 0 0 0 4.2803-10.159c0.90215-3.7438 0.89368-8.1513-0.701-11.393q-1.8553 3.5731-3.7107 7.1461z" fill="#fff"/><path transform="translate(-187.4 -154.29)" d="m539.14 306.44a4.2146 4.2146 0 0 0 4.5422 0.88647 14.999 14.999 0 0 0 4.2737-2.823 10.055 10.055 0 0 0 2.5907-2.8262 5.7318 5.7318 0 0 0 0.53-4.3664c-0.58529-1.7118-2.0704-2.2855-3.3805-2.6741q-3.1462-0.933-6.2924-1.8659l1.5173-1.3675c-1.561-0.83779-3.288 0.71707-4.2638 2.6421a14.224 14.224 0 0 0-1.2943 3.9843c-0.52223 3.0215-0.01161 6.6195 1.7771 8.4103z" fill="#e6e6e6"/><path transform="translate(-187.4 -154.29)" d="m576.17 294.01a3.4649 3.4649 0 0 0 4.7225 0.38419 5.2792 5.2792 0 0 0 2.0887-3.7621c0.14845-1.6498-0.66729-3.4836-1.8324-3.626l0.26665-1.5447c-2.2444-0.4053-5.0062-0.48651-6.2089 2.239a6.399 6.399 0 0 0 0.96357 6.3096z" fill="#e6e6e6"/><path transform="translate(-187.4 -154.29)" d="m571.23 211.86a49.926 49.926 0 0 0-55.207 44.015c-3.0907 27.399 11.344 86.898 37.662 111.53 12.392-47.189 55.815-75.179 61.56-100.34 6.1394-26.881-16.615-52.117-44.015-55.207z" fill="#90ee90"/><circle cx="374.73" cy="102.2" r="16.282" fill="#fff" data-name="b262ea8c-1946-46c9-a449-3a1996c39394"/><circle cx="357.61" cy="225.93" r="10.665" fill="#90ee90" data-name="bcc29a3a-8123-4529-80aa-6f70df2823cf"/><path transform="translate(-187.4 -154.29)" d="m575.6 244.83a16.282 16.282 0 0 1-16.772 27.913 16.28 16.28 0 0 0 11.909-29.853 16.282 16.282 0 0 1 4.8633 1.9401z" fill="#231f20" opacity=".2" style="isolation:isolate"/><path transform="translate(-187.4 -154.29)" d="m615.31 267.12c-5.7456 25.157-49.169 53.147-61.56 100.34a69.061 69.061 0 0 1-6.8775-7.5347c13.925-44.356 54.645-71.309 60.196-95.615 4.9685-21.754-8.9882-42.429-29.015-51.163 24.242 6.094 42.882 29.343 37.256 53.976z" fill="#231f20" opacity=".2" style="isolation:isolate"/><path transform="translate(-187.4 -154.29)" d="m418.64 275.4a37.492 37.492 0 0 0-41.459 33.054c-2.321 20.576 8.5191 65.257 28.283 83.754 9.3058-35.437 41.915-56.457 46.23-75.349 4.6105-20.187-12.478-39.138-33.054-41.459z" fill="#90ee90"/><circle id="b2d5ab8a-e71c-4a1a-aadf-98f8ab95825b" cx="224.41" cy="154.62" r="12.228" fill="#fff" data-name="b262ea8c-1946-46c9-a449-3a1996c39394"/><circle id="bac33ac8-32b5-423c-9bc5-6c03ceb8d8dc" cx="211.55" cy="247.53" r="8.0088" fill="#90ee90" data-name="bcc29a3a-8123-4529-80aa-6f70df2823cf"/><path transform="translate(-187.4 -154.29)" d="m421.93 300.15a12.227 12.227 0 1 1-12.596 20.961 12.226 12.226 0 0 0 8.9434-22.418 12.227 12.227 0 0 1 3.6522 1.457z" fill="#231f20" opacity=".2" style="isolation:isolate"/><path transform="translate(-187.4 -154.29)" d="m451.75 316.89c-4.3148 18.892-36.924 39.911-46.23 75.349a51.862 51.862 0 0 1-5.1647-5.6583c10.457-33.31 41.036-53.55 45.205-71.803 3.7312-16.337-6.7498-31.863-21.789-38.421 18.205 4.5764 32.203 22.035 27.978 40.534z" fill="#231f20" opacity=".2" style="isolation:isolate"/><polygon points="614.06 564.05 600.64 564.05 594.25 512.27 614.07 512.27" fill="#a0616a"/><path transform="translate(-187.4 -154.29)" d="m808.68 743.84h-9.5264l-1.7004-8.9941-4.355 8.9941h-25.266a5.6796 5.6796 0 0 1-3.2274-10.353l20.177-13.935v-9.0927l21.223 1.2667z" fill="#2f2e41"/><polygon points="562.06 564.05 548.64 564.05 542.25 512.27 562.07 512.27" fill="#a0616a"/><path transform="translate(-187.4 -154.29)" d="m756.68 743.84h-9.5264l-1.7004-8.9941-4.355 8.9941h-25.266a5.6796 5.6796 0 0 1-3.2274-10.353l20.177-13.935v-9.0927l21.223 1.2667z" fill="#2f2e41"/><path transform="translate(-187.4 -154.29)" d="m698.46 581.62c2.5692 3.8538 30.519 109.79 30.519 109.79l24.783 2.8261-2.9417-26.655-4.4961-47.17-6.9624-31.485s24.587-55.957 26.141-60.414l1.1047-3.1986 7.6818 69.714a19.577 19.577 0 0 1 1.1689 7.7846c-0.23122 4.3548 4.1364 69.869 4.1364 69.869l2.0998 23.495 21.233 2.9496 8.6146-40.652c7.1936-13.206 3.07-60.131 0.12843-64.499s-1.7728-34.787-1.7728-34.787c3.7565-1.3218 26.157-77.706 14.953-77.255 0.71936-4.0721 1.2845-7.7075 1.2845-7.7075l-19.449-15.685-48.673-12.653-12.28-5.8963s-21.932 40.554-21.713 42.571a11.214 11.214 0 0 1-1.6571 7.3093l-22.143 74.108s-4.3547 13.745-1.7599 17.637z" fill="#2f2e41"/><path transform="translate(-187.4 -154.29)" d="m820.74 316.44-7.7432-16.44-26.354 1.0129-8.5963 17.103s-24.567 29.343-25.362 38.884c-1 12 7.3116 70.812-1 67 0 0-19.595 23-8 23s64.042 32.924 67.484 36.627 18.804 6.1032 17.516-1.6265-7.9442-49.534-7.9442-49.534l18.019-65.733c5.1856-14.192 6.7995-30.11-4.923-39.643z" fill="#ccc"/><path transform="translate(-187.4 -154.29)" d="m723.12 268.05a28.88 28.88 0 0 0-37.498 16.188c-5.8848 14.825-6.86 50.228 4.0912 67.972 14.081-24.459 42.568-33.491 49.595-46.661 7.5079-14.073-1.3627-31.614-16.188-37.498z" fill="#90ee90"/><circle id="f50692ea-d13f-4759-b5e2-05248e17533e" cx="523.87" cy="137.29" r="9.4189" fill="#fff" data-name="b262ea8c-1946-46c9-a449-3a1996c39394"/><circle id="aec6a1c4-a00c-42b6-a49d-0158b63ca54a" cx="495.53" cy="203.75" r="6.1692" fill="#90ee90" data-name="bcc29a3a-8123-4529-80aa-6f70df2823cf"/><path transform="translate(-187.4 -154.29)" d="m720.56 287.11a9.4187 9.4187 0 0 1-13.6 13.034 9.4175 9.4175 0 0 0 11.18-14.856 9.4186 9.4186 0 0 1 2.4201 1.8213z" fill="#231f20" opacity=".2" style="isolation:isolate"/><path transform="translate(-187.4 -154.29)" d="m739.34 305.59c-7.0263 13.17-35.514 22.202-49.595 46.661a39.949 39.949 0 0 1-2.6951-5.2499c14.507-22.645 41.328-31.508 48.117-44.233 6.076-11.389 1.4241-25.048-8.4286-32.963 12.607 7.0819 19.482 22.889 12.602 35.785z" fill="#231f20" opacity=".2" style="isolation:isolate"/><path transform="translate(-187.4 -154.29)" d="m680.15 355.92a10.016 10.016 0 0 1 12.035 9.542l21.368 8.2022-1.8174 14.201-30.013-12.007a10.07 10.07 0 0 1-1.572-19.938z" fill="#a0616a"/><path transform="translate(-187.4 -154.29)" d="m829.45 326.66a20.026 20.026 0 0 0-27.565 6.7192l-30.671 50.649-69.346-16.438-6.3177 17.345 88.805 42.066 44.977-71.637c6.734-9.4632 10.032-22.652 0.11836-28.704z" fill="#ccc"/><path transform="translate(-187.4 -154.29)" d="M830.59748,264.58346a29.82287,29.82287,0,1,1-51.29533-20.68525l.14314-.143c.2386-.25061.4772-.50108.72773-.73975a.01167.01167,0,0,0,.01187-.01194c.31017-.28629.62034-.57258.94245-.84692a29.815,29.815,0,0,1,49.47014,22.42685Z" fill="#2f2e41"/><circle cx="606.03" cy="117.19" r="25.008" fill="#9e616a"/><path transform="translate(-187.4 -154.29)" d="m819.98 278.62-4.1436-0.73193a11.554 11.554 0 0 1-9.3047-9.3174l-4.043 6.7759-0.17675 0.0586c-9.6328 3.1982-19.655 2.2417-30.634-2.9204a85.465 85.465 0 0 1-9.1182-5.0274l-0.21679-0.13525-0.01758-0.2544c-0.55957-8.1352 1.2656-14.932 5.1416-19.137a15.417 15.417 0 0 1 11.634-4.8496 0.95727 0.95727 0 0 0 0.41309-0.228c0.05566-0.041 0.11132-0.08154 0.167-0.12012v-0.042l0.28711-0.13525c0.61718-0.29 1.2461-0.56787 1.875-0.82178a28.199 28.199 0 0 1 29.448 5.708c7.7031 7.354 11.236 19.695 8.792 30.711z" fill="#2f2e41"/><path transform="translate(-187.4 -154.29)" d="m872.73 299.92c-8.5101-4.3925 2.4348-20.334 0.23554-29.655-2.1994-9.3208-18.037-12.319-19.046-21.842s-3.3824-19.346-9.6668-26.572c-4.0157-4.6177-9.9328-8.0267-16.025-7.4483a14.409 14.409 0 0 0-12.628 17.792c-1.7346-2.4578-6.2234-1.9251-7.3345 0.87052-0.98788 2.4853 1.1944 5.4957 3.7625 5.7156 3.3605 4.15 7.2086 8.5543 12.473 9.3914a5.6806 5.6806 0 0 0 4.8408-1.1173c1.2386-1.1894 1.3349-3.5674-0.13434-4.4562 6.6162 2.6281 10.495 9.7816 11.477 16.833 0.98162 7.051-0.3765 14.185-1.2715 21.248s-1.2806 14.492 1.4886 21.05c3.2718 7.7488 10.805 13.303 19.025 15.084s16.976 0.04034 24.417-3.8815c7.4411-3.9221 13.646-9.9094 18.715-16.622-8.7317 6.2002-20.812 8.523-30.328 3.6111z" fill="#2f2e41"/><path transform="translate(-187.4 -154.29)" d="M818.91887,277.92016s-7.408-27.65168-39.16341-34.03389c-.03575-.01179-.15508-.05955-.31017-.131-.09538-.05971-.21472-.11941-.334-.179.35786-.20285.70378-.38167,1.06171-.56078a.01167.01167,0,0,0,.01187-.01194c.31017-.28629.62034-.57258.94245-.84692l.90663.03582S813.89667,237.14642,818.91887,277.92016Z" fill="#fd6584"/><polygon points="614.93 212.36 597 233.14 567.36 224.38 599.67 239.27" opacity=".2"/><path transform="translate(-187.4 -154.29)" d="m909.98 745.4-275.75 0.30734a1.1907 1.1907 0 0 1 0-2.3814l275.75-0.30733a1.1907 1.1907 0 1 1 0 2.3814z" fill="#cacaca"/><path transform="translate(-187.4 -154.29)" d="m922.09 560.36q-19.368 0-42.457-1.4639c-79.614-5.0557-182.74-22.633-290.38-49.492-107.64-26.859-206.93-59.794-279.59-92.734-35.393-16.047-62.556-31.236-80.735-45.147-19.247-14.727-27.666-27.564-25.024-38.153 5.148-20.629 50.731-25.142 88.064-25.295l0.0127 3c-51.268 0.21045-81.514 8.3867-85.166 23.022-4.6518 18.64 33.287 47.741 104.09 79.841 72.496 32.868 171.61 65.739 279.07 92.557 107.47 26.816 210.4 44.363 289.84 49.408 77.579 4.9277 124.74-2.9375 129.39-21.578 3.8618-15.477-21.598-38.275-71.689-64.198l1.3789-2.6641c36.397 18.836 78.646 45.852 73.222 67.589-2.6425 10.589-16.105 17.965-40.015 21.923-13.629 2.2558-30.37 3.3867-50.024 3.3867z" fill="#90ee90"/></svg>
